<?xml version="1.0" encoding="UTF-8"?>
<svg version="1.1" xmlns="http://www.w3.org/2000/svg" width="355" height="255">
<path d="M0 0 C117.15 0 234.3 0 355 0 C355 84.15 355 168.3 355 255 C237.85 255 120.7 255 0 255 C0 170.85 0 86.7 0 0 Z " fill="#FEFEFE" transform="translate(0,0)"/>
<path d="M0 0 C2.2199707 1.12329102 2.2199707 1.12329102 4.42578125 2.50390625 C5.22177734 2.99697266 6.01777344 3.49003906 6.83789062 3.99804688 C7.65451172 4.51431641 8.47113281 5.03058594 9.3125 5.5625 C10.14845703 6.08263672 10.98441406 6.60277344 11.84570312 7.13867188 C13.90144205 8.41910355 15.95257223 9.7063358 18 11 C14.53659492 14.91319794 10.55555177 17.26903131 6.0625 19.8125 C5.35931641 20.23208984 4.65613281 20.65167969 3.93164062 21.08398438 C-1.15394664 23.97709728 -1.15394664 23.97709728 -4.453125 24.06640625 C-8.43125212 22.40071805 -12.1045904 20.31928682 -15.8125 18.125 C-16.99489258 17.45404297 -16.99489258 17.45404297 -18.20117188 16.76953125 C-18.94560547 16.33253906 -19.69003906 15.89554688 -20.45703125 15.4453125 C-21.4776062 14.85000732 -21.4776062 14.85000732 -22.51879883 14.24267578 C-23.00759521 13.83259277 -23.4963916 13.42250977 -24 13 C-24 12.01 -24 11.02 -24 10 C-21.20014802 7.70230655 -17.95390503 6.04181527 -14.8125 4.25 C-13.94818359 3.73050781 -13.08386719 3.21101563 -12.19335938 2.67578125 C-11.35224609 2.18980469 -10.51113281 1.70382813 -9.64453125 1.203125 C-8.87471924 0.75614258 -8.10490723 0.30916016 -7.31176758 -0.15136719 C-4.3901154 -1.22388413 -2.94456394 -0.94056034 0 0 Z " fill="#07B7F0" transform="translate(176,82)"/>
<path d="M0 0 C2.475 0.99 2.475 0.99 5 2 C5.70229736 2.25217285 6.40459473 2.5043457 7.12817383 2.76416016 C12.69976107 4.84099138 18.31896772 7.1644004 22 12 C24.15177496 19.74853625 23.03875282 28.12803971 22 36 C16.7390786 34.48976704 12.32632246 32.09487758 7.625 29.375 C5.10875 27.93125 2.5925 26.4875 0 25 C0 16.75 0 8.5 0 0 Z " fill="#1F4977" transform="translate(148,98)"/>
<path d="M0 0 C0 8.25 0 16.5 0 25 C-2.8875 26.629375 -5.775 28.25875 -8.75 29.9375 C-9.65331055 30.45046631 -10.55662109 30.96343262 -11.48730469 31.49194336 C-12.20821289 31.89550049 -12.92912109 32.29905762 -13.671875 32.71484375 C-14.4050293 33.12855225 -15.13818359 33.54226074 -15.89355469 33.96850586 C-17.9300979 34.96577001 -19.78593284 35.542747 -22 36 C-23.24055815 28.13295277 -24.47417635 19.70830801 -22 12 C-17.40127894 6.48711739 -7.44526747 0 0 0 Z " fill="#0C85D3" transform="translate(197,98)"/>
<path d="M0 0 C4.75 1.875 4.75 1.875 7 3 C7 12.9 7 22.8 7 33 C8.65 33.66 10.3 34.32 12 35 C13.71009756 35.91051276 15.40372345 36.85245401 17.08203125 37.8203125 C18.01337891 38.35527344 18.94472656 38.89023438 19.90429688 39.44140625 C20.86400391 39.99699219 21.82371094 40.55257812 22.8125 41.125 C23.79154297 41.68832031 24.77058594 42.25164062 25.77929688 42.83203125 C28.18789555 44.21844415 30.59471395 45.60785055 33 47 C33 49.97 33 52.94 33 56 C29.19402304 55.04850576 26.67315887 53.8503946 23.28125 51.9453125 C22.18425781 51.33042969 21.08726562 50.71554688 19.95703125 50.08203125 C18.81621094 49.43621094 17.67539063 48.79039062 16.5 48.125 C14.78876953 47.16787109 14.78876953 47.16787109 13.04296875 46.19140625 C6.77187794 42.66161483 6.77187794 42.66161483 4 41 C3.23010742 40.61400635 2.46021484 40.2280127 1.66699219 39.83032227 C-1.07423091 36.82051711 -0.48821104 33.25029832 -0.390625 29.39453125 C-0.38496521 28.55532639 -0.37930542 27.71612152 -0.37347412 26.85148621 C-0.35108406 24.17124367 -0.30088453 21.49233837 -0.25 18.8125 C-0.22993832 16.99546202 -0.21168697 15.17840308 -0.1953125 13.36132812 C-0.15121086 8.90703688 -0.08216659 4.45374515 0 0 Z " fill="#1B4775" transform="translate(137,92)"/>
<path d="M0 0 C0.32311734 5.26470957 0.55794105 10.52358984 0.71411133 15.79589844 C0.77921984 17.58533237 0.86775157 19.37408143 0.98071289 21.16113281 C1.70780985 32.96576578 1.70780985 32.96576578 0 38 C-3.7772031 42.03518579 -7.95715063 43.88482969 -13 46 C-14.64642538 46.95794258 -16.27710043 47.94402601 -17.8828125 48.96875 C-19.2961649 49.81368894 -20.71020377 50.6574809 -22.125 51.5 C-22.85203125 51.94085938 -23.5790625 52.38171875 -24.328125 52.8359375 C-25.37613281 53.45855469 -25.37613281 53.45855469 -26.4453125 54.09375 C-27.05906738 54.46177734 -27.67282227 54.82980469 -28.30517578 55.20898438 C-30 56 -30 56 -33 56 C-33.79427362 52.76019972 -33.96140535 50.21798459 -33 47 C-29.46847559 43.72739184 -25.37457974 41.65393801 -21.125 39.4375 C-19.99707031 38.81037109 -18.86914062 38.18324219 -17.70703125 37.53710938 C-9.44424755 33 -9.44424755 33 -7 33 C-7.02618408 32.10692139 -7.05236816 31.21384277 -7.0793457 30.29370117 C-7.16459334 26.97810769 -7.22725588 23.66367881 -7.2746582 20.34741211 C-7.29979524 18.91265486 -7.33391108 17.47802559 -7.37719727 16.04370117 C-7.43789665 13.9806363 -7.46621353 11.91926385 -7.48828125 9.85546875 C-7.51446533 8.61434326 -7.54064941 7.37321777 -7.56762695 6.09448242 C-7 3 -7 3 -4.59448242 1.0715332 C-2 0 -2 0 0 0 Z " fill="#0984D2" transform="translate(208,92)"/>
<path d="M0 0 C3.05043042 0.93562211 5.47815911 2.24211048 8.22265625 3.87060547 C9.26679688 4.48548828 10.3109375 5.10037109 11.38671875 5.73388672 C12.46695313 6.37970703 13.5471875 7.02552734 14.66015625 7.69091797 C15.74039063 8.32900391 16.820625 8.96708984 17.93359375 9.62451172 C20.84705564 11.34741079 23.75537849 13.07842663 26.66015625 14.81591797 C27.59988281 15.33814941 28.53960937 15.86038086 29.5078125 16.3984375 C30.21808594 16.86620605 30.92835938 17.33397461 31.66015625 17.81591797 C31.66015625 18.47591797 31.66015625 19.13591797 31.66015625 19.81591797 C27.52338732 22.91849467 27.52338732 22.91849467 24.80078125 22.5949707 C22.13035213 21.62310262 20.02504736 20.24038824 17.66015625 18.66357422 C7.53841726 11.53857851 7.53841726 11.53857851 -4.06640625 9.01123047 C-7.22791959 10.63885594 -9.64504761 12.49831551 -12.33984375 14.81591797 C-14.04468569 15.98752741 -15.77866066 17.08959377 -17.53857422 18.17651367 C-19.19461542 19.2021803 -20.81354102 20.28706743 -22.4296875 21.37451172 C-25.33984375 22.81591797 -25.33984375 22.81591797 -28.03125 22.66357422 C-30.33984375 21.81591797 -30.33984375 21.81591797 -33.33984375 19.81591797 C-33.33984375 19.15591797 -33.33984375 18.49591797 -33.33984375 17.81591797 C-32.50735107 17.3417041 -31.6748584 16.86749023 -30.81713867 16.37890625 C-27.72471491 14.61698365 -24.63310969 12.8536291 -21.54174805 11.08984375 C-20.20440551 10.3270836 -18.86684216 9.56471047 -17.52905273 8.80273438 C-15.60472171 7.70658741 -13.68119254 6.60904504 -11.7578125 5.51123047 C-10.86233955 5.00174362 -10.86233955 5.00174362 -9.94877625 4.48196411 C-1.85007918 -0.14555089 -1.85007918 -0.14555089 0 0 Z " fill="#0BB8F0" transform="translate(173.33984375,68.18408203125)"/>
<path d="M0 0 C0 5.94 0 11.88 0 18 C-4.62446575 19.54148858 -9.17091109 19.49956092 -14 19 C-16.88468192 17.35161033 -17.5922308 16.27767682 -18.5859375 13.1640625 C-19.41655012 9.07368714 -19.18935551 7.35912252 -17.1875 3.5625 C-12.62273395 -1.78479737 -6.64219644 -0.06511957 0 0 Z " fill="#3E3E3E" transform="translate(222,165)"/>
<path d="M0 0 C4.6 2.2 4.6 2.2 6 5 C6.6469176 9.7040151 6.63833677 12.99101607 4.0625 17.0625 C0.50994766 19.31003311 -1.6918136 19.7961723 -5.83984375 19.546875 C-8 19 -8 19 -11.0625 16.4375 C-13.30625709 12.45664064 -13.73540053 10.49411434 -13 6 C-9.27625236 0.29025362 -6.72149163 -0.45569435 0 0 Z " fill="#404040" transform="translate(98,165)"/>
<path d="M0 0 C2.875 1.625 2.875 1.625 5 4 C5.875 7.1875 5.875 7.1875 6 10 C5 11 5 11 2.05859375 11.09765625 C0.26615234 11.08025391 0.26615234 11.08025391 -1.5625 11.0625 C-3.35880859 11.04896484 -3.35880859 11.04896484 -5.19140625 11.03515625 C-6.11824219 11.02355469 -7.04507813 11.01195312 -8 11 C-5.49735544 14.10387292 -5.49735544 14.10387292 -1.859375 15.171875 C-1.16328125 15.03265625 -0.4671875 14.8934375 0.25 14.75 C1.4875 14.5025 2.725 14.255 4 14 C4 15.32 4 16.64 4 18 C0.50797535 19.74601232 -3.18982279 19.55838804 -7 19 C-10.0625 17.0625 -10.0625 17.0625 -12 14 C-12.6912567 10.84078551 -12.70239306 8.15791352 -12 5 C-8.6691068 0.05412828 -5.84239298 -0.93895602 0 0 Z " fill="#3B3B3B" transform="translate(139,165)"/>
<path d="M0 0 C1.32 0 2.64 0 4 0 C4.33 4.62 4.66 9.24 5 14 C7.31 11.69 9.62 9.38 12 7 C12.99 7.33 13.98 7.66 15 8 C14.45773019 11.79588866 12.79872437 13.47211993 10 16 C10.44472656 16.47050781 10.88945312 16.94101563 11.34765625 17.42578125 C11.91355469 18.04839844 12.47945313 18.67101562 13.0625 19.3125 C13.63097656 19.92738281 14.19945312 20.54226562 14.78515625 21.17578125 C15.18605469 21.77777344 15.58695312 22.37976563 16 23 C15.67 23.99 15.34 24.98 15 26 C11.21388773 25.45912682 9.44599233 23.88277668 7 21 C7 20.34 7 19.68 7 19 C4.64214682 19.89335797 4.64214682 19.89335797 3.875 23.0625 C3.58625 24.031875 3.2975 25.00125 3 26 C2.01 26 1.02 26 0 26 C0 17.42 0 8.84 0 0 Z " fill="#3A3A3A" transform="translate(246,158)"/>
<path d="M0 0 C1.32 0.33 2.64 0.66 4 1 C4.33 5.29 4.66 9.58 5 14 C7.31 11.69 9.62 9.38 12 7 C12.99 7.33 13.98 7.66 15 8 C13.62845496 10.95409701 12.01136276 13.44008376 10 16 C10.44472656 16.47050781 10.88945313 16.94101563 11.34765625 17.42578125 C11.91355469 18.04839844 12.47945312 18.67101562 13.0625 19.3125 C13.63097656 19.92738281 14.19945313 20.54226562 14.78515625 21.17578125 C15.18605469 21.77777344 15.58695313 22.37976563 16 23 C15.67 23.99 15.34 24.98 15 26 C10.62140745 25.49477778 8.18348776 22.82172778 5 20 C4.34 21.98 3.68 23.96 3 26 C2.01 26 1.02 26 0 26 C0 17.42 0 8.84 0 0 Z " fill="#3A3A3A" transform="translate(109,158)"/>
<path d="M0 0 C0.639375 0.165 1.27875 0.33 1.9375 0.5 C4.04582216 1.24598544 4.04582216 1.24598544 6 0 C11.25211972 -0.44698891 11.25211972 -0.44698891 13.6796875 1.00390625 C15.77268036 4.16816469 15.31202681 7.53152062 15.1875 11.1875 C15.16719727 12.31188477 15.16719727 12.31188477 15.14648438 13.45898438 C15.11118539 15.30629767 15.05737917 17.15324066 15 19 C13.68 18.67 12.36 18.34 11 18 C10.67 13.71 10.34 9.42 10 5 C8.35 5 6.7 5 5 5 C3.18884044 6.81115956 3.61800552 9.61278227 3.4375 12.0625 C3.35371094 13.16722656 3.26992187 14.27195313 3.18359375 15.41015625 C3.12300781 16.26480469 3.06242188 17.11945313 3 18 C1.68 18.33 0.36 18.66 -1 19 C-1.02683987 16.02077407 -1.04676037 13.04178705 -1.0625 10.0625 C-1.07087891 9.21236328 -1.07925781 8.36222656 -1.08789062 7.48632812 C-1.09111328 6.67744141 -1.09433594 5.86855469 -1.09765625 5.03515625 C-1.10289307 4.2862915 -1.10812988 3.53742676 -1.11352539 2.76586914 C-1 1 -1 1 0 0 Z " fill="#3A3A3A" transform="translate(150,165)"/>
<path d="M0 0 C5.94 0 11.88 0 18 0 C18.33 1.32 18.66 2.64 19 4 C16.36 4 13.72 4 11 4 C11 10.6 11 17.2 11 24 C9.68 24.33 8.36 24.66 7 25 C7 18.07 7 11.14 7 4 C4.36 4 1.72 4 -1 4 C-0.67 2.68 -0.34 1.36 0 0 Z " fill="#343434" transform="translate(169,159)"/>
<path d="M0 0 C5.94 0 11.88 0 18 0 C18.33 1.32 18.66 2.64 19 4 C16.36 4 13.72 4 11 4 C11 10.6 11 17.2 11 24 C9.68 24.33 8.36 24.66 7 25 C7 18.07 7 11.14 7 4 C4.36 4 1.72 4 -1 4 C-0.67 2.68 -0.34 1.36 0 0 Z " fill="#343434" transform="translate(68,159)"/>
<path d="M0 0 C2 2 2 2 2 5 C1.37351563 4.97679687 0.74703125 4.95359375 0.1015625 4.9296875 C-0.71570313 4.91164062 -1.53296875 4.89359375 -2.375 4.875 C-3.59316406 4.84019531 -3.59316406 4.84019531 -4.8359375 4.8046875 C-7.21342243 4.78629949 -7.21342243 4.78629949 -9 7 C-8.67673447 10.59679066 -8.67673447 10.59679066 -8 14 C-4.56484998 14.62457273 -1.50935186 15 2 15 C2 15.99 2 16.98 2 18 C-1.4392532 19.7196266 -5.23164562 19.38219964 -9 19 C-12.28931514 17.27310955 -12.8140267 16.5579199 -14 13 C-14.67330317 6.04253394 -14.67330317 6.04253394 -12.0625 2 C-8.06770471 -0.6088459 -4.67095343 -0.87178895 0 0 Z " fill="#3D3D3D" transform="translate(240,165)"/>
<path d="M0 0 C0.99 0 1.98 0 3 0 C3 0.66 3 1.32 3 2 C3.99 1.34 4.98 0.68 6 0 C8.6875 -0.125 8.6875 -0.125 11 0 C11 1.32 11 2.64 11 4 C9.02 4.33 7.04 4.66 5 5 C4.67 9.29 4.34 13.58 4 18 C2.68 18.33 1.36 18.66 0 19 C-1.8855253 17.1144747 -1.13246689 14.42231169 -1.13671875 11.91796875 C-1.13285156 11.12003906 -1.12898437 10.32210937 -1.125 9.5 C-1.12886719 8.70207031 -1.13273438 7.90414062 -1.13671875 7.08203125 C-1.12660767 1.12660767 -1.12660767 1.12660767 0 0 Z " fill="#4C4C4C" transform="translate(190,165)"/>
<path d="M0 0 C1.33333333 0.33333333 2.66666667 0.66666667 4 1 C4.33 0.67 4.66 0.34 5 0 C6.99958364 -0.04080783 9.00045254 -0.04254356 11 0 C11 1.32 11 2.64 11 4 C8.69 4.66 6.38 5.32 4 6 C3.67 9.96 3.34 13.92 3 18 C1.68 18.33 0.36 18.66 -1 19 C-1.02683987 16.02077407 -1.04676037 13.04178705 -1.0625 10.0625 C-1.07087891 9.21236328 -1.07925781 8.36222656 -1.08789062 7.48632812 C-1.09111328 6.67744141 -1.09433594 5.86855469 -1.09765625 5.03515625 C-1.10289307 4.2862915 -1.10812988 3.53742676 -1.11352539 2.76586914 C-1 1 -1 1 0 0 Z " fill="#383838" transform="translate(267,165)"/>
<path d="M0 0 C3 0.25 3 0.25 5 2.25 C5.375 5.6875 5.375 5.6875 5 9.25 C3.3125 11.3125 3.3125 11.3125 1 12.25 C-1.39263407 11.58228817 -3.22097385 11.02902615 -5 9.25 C-5.1875 5.8125 -5.1875 5.8125 -5 2.25 C-3 0.25 -3 0.25 0 0 Z " fill="#F9F9F9" transform="translate(95,168.75)"/>
<path d="M0 0 C3.625 0.375 3.625 0.375 7 1 C7.75 4.25 7.75 4.25 8 8 C6.0625 10.4375 6.0625 10.4375 4 12 C-0.875 10.125 -0.875 10.125 -2 9 C-2.1875 5.5625 -2.1875 5.5625 -2 2 C-1.34 1.34 -0.68 0.68 0 0 Z " fill="#F8F8F8" transform="translate(210,169)"/>
<path d="M0 0 C1.98 0 3.96 0 6 0 C6.33 1.32 6.66 2.64 7 4 C4.03 4 1.06 4 -2 4 C-1.34 2.68 -0.68 1.36 0 0 Z " fill="#DADADA" transform="translate(133,169)"/>
<path d="M0 0 C1.65 0 3.3 0 5 0 C5 1.32 5 2.64 5 4 C2.69 4.33 0.38 4.66 -2 5 C-1.34 3.35 -0.68 1.7 0 0 Z " fill="#414141" transform="translate(196,165)"/>
<path d="M0 0 C1.32 0 2.64 0 4 0 C4 1.32 4 2.64 4 4 C2.02 4 0.04 4 -2 4 C-1.34 2.68 -0.68 1.36 0 0 Z " fill="#454545" transform="translate(274,165)"/>
</svg>
